# xmcd
#
# Track frame offsets:
#	150
#	17984
#	35963
#
# Disc length: 487 seconds
#
# Revision: 0
# Processed by: cddbd v1.5.2PL0 Copyright (c) Steve Scherf et al.
# Submitted via: audiograbber 1.83.01
#
DISCID=2401e503
DTITLE=Latrelle - House Party [CDS)
DYEAR=2002
DGENRE=R&B
TTITLE0=House Party (Radio)
TTITLE1=House Party (Instrumental)
TTITLE2=House Party (Call Out Hook)
EXTD=
EXTT0=
EXTT1=
EXTT2=
PLAYORDER=
